<svg width="27" height="33" viewBox="0 0 27 33" fill="none" xmlns="http://www.w3.org/2000/svg">
<path d="M25.1455 0C25.9623 0 26.6248 0.661744 26.625 1.47852V31.0625C26.6248 31.8793 25.9623 32.541 25.1455 32.541H5.17676C3.80398 32.5409 2.48739 31.996 1.5166 31.0254C0.54571 30.0545 0 28.7373 0 27.3643V5.17676C7.10341e-08 3.80371 0.54571 2.48652 1.5166 1.51562C2.48739 0.545014 3.80398 8.61601e-05 5.17676 0H25.1455ZM5.91699 22.9268C3.87469 22.9268 2.21875 24.5827 2.21875 26.625C2.21893 28.6672 3.8748 30.3223 5.91699 30.3223H24.4062V22.9268H5.91699Z" fill="#9FA0A2"/>
</svg>
