<svg width="32" height="32" viewBox="0 0 32 32" fill="none" xmlns="http://www.w3.org/2000/svg">
<path d="M27.2 3.2H25.6V1.6C25.6 0.64 24.96 0 24 0C23.04 0 22.4 0.64 22.4 1.6V3.2H9.6V1.6C9.6 0.64 8.96 0 8 0C7.04 0 6.4 0.64 6.4 1.6V3.2H4.8C2.08 3.2 0 5.28 0 8V9.6H32V8C32 5.28 29.92 3.2 27.2 3.2ZM0 27.2C0 29.92 2.08 32 4.8 32H27.2C29.92 32 32 29.92 32 27.2V12.8H0V27.2ZM24 16C24.96 16 25.6 16.64 25.6 17.6C25.6 18.56 24.96 19.2 24 19.2C23.04 19.2 22.4 18.56 22.4 17.6C22.4 16.64 23.04 16 24 16ZM24 22.4C24.96 22.4 25.6 23.04 25.6 24C25.6 24.96 24.96 25.6 24 25.6C23.04 25.6 22.4 24.96 22.4 24C22.4 23.04 23.04 22.4 24 22.4ZM16 16C16.96 16 17.6 16.64 17.6 17.6C17.6 18.56 16.96 19.2 16 19.2C15.04 19.2 14.4 18.56 14.4 17.6C14.4 16.64 15.04 16 16 16ZM16 22.4C16.96 22.4 17.6 23.04 17.6 24C17.6 24.96 16.96 25.6 16 25.6C15.04 25.6 14.4 24.96 14.4 24C14.4 23.04 15.04 22.4 16 22.4ZM8 16C8.96 16 9.6 16.64 9.6 17.6C9.6 18.56 8.96 19.2 8 19.2C7.04 19.2 6.4 18.56 6.4 17.6C6.4 16.64 7.04 16 8 16ZM8 22.4C8.96 22.4 9.6 23.04 9.6 24C9.6 24.96 8.96 25.6 8 25.6C7.04 25.6 6.4 24.96 6.4 24C6.4 23.04 7.04 22.4 8 22.4Z" fill="#9FA0A2"/>
</svg>
