<svg width="24" height="24" viewBox="0 0 24 24" fill="none" xmlns="http://www.w3.org/2000/svg">
<path d="M11 3C11.5523 3 12 3.44772 12 4C12 4.55228 11.5523 5 11 5H4C3.73478 5 3.4805 5.10543 3.29297 5.29297C3.10543 5.4805 3 5.73478 3 6V20C3 20.2652 3.10543 20.5195 3.29297 20.707C3.48051 20.8946 3.73478 21 4 21H18C18.2652 21 18.5195 20.8946 18.707 20.707C18.8946 20.5195 19 20.2652 19 20V13C19 12.4477 19.4477 12 20 12C20.5523 12 21 12.4477 21 13V20C21 20.7957 20.6837 21.5585 20.1211 22.1211C19.5585 22.6837 18.7957 23 18 23H4C3.20435 23 2.44152 22.6837 1.87891 22.1211C1.3163 21.5585 1 20.7957 1 20V6C1 5.20435 1.3163 4.44152 1.87891 3.87891C2.44152 3.3163 3.20435 3 4 3H11ZM20.5986 1C20.914 1.00001 21.2262 1.06212 21.5176 1.18262C21.8089 1.30313 22.0739 1.47948 22.2969 1.70215C22.5199 1.92483 22.6967 2.18953 22.8174 2.48047C22.938 2.77137 23 3.08358 23 3.39844C23 3.7131 22.9379 4.0247 22.8174 4.31543C22.6967 4.60632 22.5198 4.87109 22.2969 5.09375L12.626 14.7715C12.5619 14.8356 12.4815 14.8814 12.3936 14.9033L8.80859 15.7979C8.44237 15.8893 8.11048 15.5576 8.20215 15.1914L9.09863 11.6123C9.12062 11.5245 9.16554 11.4439 9.22949 11.3799L18.9004 1.70215C19.3507 1.25248 19.9618 1 20.5986 1Z" fill="#EB9317"/>
</svg>
