<svg width="27" height="30" viewBox="0 0 27 30" fill="none" xmlns="http://www.w3.org/2000/svg">
<path d="M15.6421 25.5537C16.1236 25.5538 16.5687 25.8108 16.8091 26.2275C17.0492 26.6442 17.0485 27.1573 16.8071 27.5732C16.452 28.1846 15.9418 28.6921 15.3286 29.0449C14.7153 29.3977 14.0198 29.584 13.312 29.584C12.6043 29.584 11.9087 29.3977 11.2954 29.0449C10.6823 28.6921 10.1729 28.1845 9.81787 27.5732C9.57624 27.1572 9.57555 26.6443 9.81592 26.2275C10.0563 25.8108 10.5013 25.5537 10.9829 25.5537H15.6421ZM13.312 0C15.7904 0 18.1644 0.996263 19.9116 2.76367C21.6582 4.53049 22.6362 6.92373 22.6362 9.41504C22.6363 13.9265 23.59 16.7288 24.4692 18.3594C24.9106 19.1779 25.3402 19.715 25.6382 20.0332C25.7875 20.1926 25.9047 20.2981 25.9751 20.3574C26.0103 20.3871 26.0344 20.4046 26.0444 20.4121L26.0474 20.415C26.5266 20.7482 26.737 21.353 26.5659 21.9121C26.3927 22.4774 25.8698 22.8643 25.2778 22.8643H1.34619C0.754386 22.8641 0.232262 22.4773 0.059082 21.9121C-0.112073 21.3531 0.0975093 20.7483 0.57666 20.415L0.580566 20.4121C0.590671 20.4045 0.614161 20.3867 0.648926 20.3574C0.719241 20.2981 0.836676 20.1924 0.98584 20.0332C1.28381 19.715 1.71343 19.1779 2.15479 18.3594C3.03401 16.7288 3.98873 13.9267 3.98877 9.41504C3.98877 6.9237 4.96677 4.5305 6.71338 2.76367C8.46049 0.996412 10.8337 7.50223e-05 13.312 0Z" fill="#EB9317"/>
</svg>
